<?xml version="1.0" standalone="no"?>
<!DOCTYPE svg PUBLIC "-//W3C//DTD SVG 20010904//EN"
 "http://www.w3.org/TR/2001/REC-SVG-20010904/DTD/svg10.dtd">
<svg version="1.0" xmlns="http://www.w3.org/2000/svg"
 width="320.000000pt" height="100.000000pt" viewBox="0 0 320.000000 100.000000"
 preserveAspectRatio="xMidYMid meet">

<g transform="translate(0.000000,100.000000) scale(0.100000,-0.100000)"
fill="#000000" stroke="none">
<path d="M70 526 l0 -106 40 0 c51 0 105 22 119 48 19 36 13 98 -12 127 -18
22 -34 27 -85 32 l-62 6 0 -107z m116 66 c38 -25 41 -112 4 -132 -10 -5 -37
-10 -59 -10 l-41 0 0 75 0 75 43 0 c23 0 47 -4 53 -8z"/>
<path d="M308 532 c-21 -55 -38 -102 -38 -105 0 -17 22 -4 30 18 8 22 15 25
60 25 45 0 52 -3 60 -25 9 -23 31 -36 29 -17 -2 29 -77 197 -89 200 -11 2 -26
-27 -52 -96z m72 22 c11 -25 20 -48 20 -50 0 -2 -18 -4 -41 -4 -29 0 -40 4
-36 13 2 6 10 29 18 50 7 20 15 37 16 37 2 0 13 -21 23 -46z"/>
<path d="M513 620 c-28 -12 -41 -56 -21 -76 7 -8 34 -20 58 -27 34 -9 46 -18
48 -35 4 -25 -27 -37 -83 -30 -50 6 -46 -18 4 -27 54 -9 95 11 99 49 4 36 -8
48 -61 61 -35 9 -42 15 -42 35 0 23 5 25 48 28 50 3 62 16 25 26 -30 8 -48 7
-75 -4z"/>
<path d="M670 525 c0 -63 4 -105 10 -105 6 0 10 20 10 45 l0 45 55 0 55 0 0
-45 c0 -33 4 -45 15 -45 12 0 15 18 15 105 0 87 -3 105 -15 105 -11 0 -15 -12
-15 -45 l0 -45 -55 0 -55 0 0 45 c0 25 -4 45 -10 45 -6 0 -10 -42 -10 -105z"/>
<path d="M890 525 l0 -105 45 0 c52 0 92 16 98 39 5 22 -9 61 -23 61 -6 0 -3
11 6 25 32 49 -5 85 -87 85 l-39 0 0 -105z m105 45 c0 -22 -5 -25 -42 -28 -42
-3 -43 -2 -43 28 0 30 1 31 43 28 37 -3 42 -6 42 -28z m10 -90 c0 -23 -4 -25
-47 -28 -48 -3 -48 -3 -48 28 0 31 0 31 48 28 43 -3 47 -5 47 -28z"/>
<path d="M1124 620 c-33 -13 -54 -50 -54 -96 0 -75 64 -121 131 -94 78 33 76
161 -2 189 -37 13 -46 13 -75 1z m88 -37 c23 -21 24 -89 1 -115 -22 -25 -75
-23 -98 2 -43 47 -11 130 48 130 17 0 39 -7 49 -17z"/>
<path d="M1318 532 c-21 -55 -38 -102 -38 -105 0 -17 22 -4 30 18 8 22 15 25
60 25 45 0 52 -3 60 -25 9 -23 31 -36 29 -17 -2 29 -77 197 -89 200 -11 2 -26
-27 -52 -96z m72 22 c11 -25 20 -48 20 -50 0 -2 -18 -4 -41 -4 -29 0 -40 4
-36 13 2 6 10 29 18 50 7 20 15 37 16 37 2 0 13 -21 23 -46z"/>
<path d="M1500 526 c0 -64 4 -106 10 -106 6 0 10 20 10 45 0 45 0 45 35 45 32
0 37 -4 57 -45 12 -25 28 -45 36 -45 9 0 5 16 -16 54 -23 43 -26 56 -16 60 19
7 18 60 -1 76 -9 7 -38 15 -65 18 l-50 5 0 -107z m100 59 c19 -22 -5 -45 -46
-45 -31 0 -34 3 -34 30 0 27 3 30 34 30 18 0 39 -7 46 -15z"/>
<path d="M1700 525 l0 -108 62 6 c79 7 108 35 108 102 0 67 -29 95 -108 102
l-62 6 0 -108z m124 59 c20 -20 30 -57 21 -83 -11 -36 -34 -51 -81 -51 l-44 0
0 75 0 75 44 0 c27 0 51 -6 60 -16z"/>
<path d="M1990 624 c0 -4 17 -51 38 -106 26 -69 41 -98 52 -96 14 3 95 196 86
205 -11 11 -23 -10 -51 -86 -16 -45 -32 -81 -36 -81 -3 0 -20 37 -36 82 -17
45 -35 84 -41 86 -7 2 -12 0 -12 -4z"/>
<path d="M2210 525 l0 -105 65 0 c51 0 65 3 65 15 0 12 -13 15 -55 15 -54 0
-55 0 -55 30 0 30 1 30 55 30 44 0 53 3 49 15 -4 11 -21 15 -55 15 -48 0 -49
1 -49 30 0 30 1 30 55 30 42 0 55 3 55 15 0 12 -14 15 -65 15 l-65 0 0 -105z"/>
<path d="M2390 525 c0 -63 4 -105 10 -105 6 0 10 35 10 85 0 47 3 85 8 85 4 0
27 -38 50 -85 32 -64 47 -85 62 -85 19 0 20 7 20 105 0 85 -3 105 -15 105 -11
0 -15 -19 -17 -86 l-3 -85 -45 85 c-30 58 -51 86 -62 86 -16 0 -18 -12 -18
-105z"/>
<path d="M2610 524 l0 -107 62 6 c51 5 67 10 85 32 25 29 31 91 12 127 -14 26
-68 48 -119 48 l-40 0 0 -106z m124 60 c20 -20 30 -57 21 -83 -11 -36 -34 -51
-81 -51 l-44 0 0 75 0 75 44 0 c27 0 51 -6 60 -16z"/>
<path d="M2848 532 c-21 -55 -38 -102 -38 -105 0 -17 22 -4 30 18 8 22 15 25
60 25 45 0 52 -3 60 -25 9 -23 31 -36 29 -17 -2 29 -77 197 -89 200 -11 2 -26
-27 -52 -96z m72 22 c11 -25 20 -48 20 -50 0 -2 -18 -4 -41 -4 -29 0 -40 4
-36 13 2 6 10 29 18 50 7 20 15 37 16 37 2 0 13 -21 23 -46z"/>
<path d="M3053 620 c-30 -12 -41 -57 -19 -78 9 -9 35 -21 59 -27 32 -8 43 -15
45 -32 4 -26 -27 -38 -83 -31 -50 6 -46 -18 4 -27 54 -9 95 11 99 49 4 36 -8
48 -61 61 -35 9 -42 15 -42 35 0 23 5 25 48 28 50 3 62 16 25 26 -30 8 -48 7
-75 -4z"/>
<path d="M798 3 c441 -2 1163 -2 1605 0 441 1 80 2 -803 2 -883 0 -1244 -1
-802 -2z"/>
</g>
</svg>
